<svg width="60" height="54" viewBox="0 0 60 54" fill="none" xmlns="http://www.w3.org/2000/svg">
<path d="M58.875 15.0125L55.8125 5.18333C55.1709 2.55833 52.8959 0.75 50.2417 0.75H9.72919C7.10419 0.75 4.80003 2.5875 4.18753 5.18333L1.12503 15.0125C-0.216641 20.7583 3.60419 24.0833 3.75003 24.2583V47.4167C3.75003 50.625 6.37503 53.25 9.58336 53.25H50.4167C53.625 53.25 56.25 50.625 56.25 47.4167V24.2583C59.5167 20.9917 59.4292 17.2292 58.875 15.0125ZM32.9167 6.58333H38.6334L40.2084 16.85C40.4709 18.9208 39.0709 21.1667 36.475 21.1667C34.5209 21.1667 32.9167 19.4458 32.9167 17.3458V6.58333ZM13.7834 17.8417C13.55 19.7375 12.0334 21.1667 10.2542 21.1667C7.54169 21.1667 6.31669 18.3375 6.78336 16.3833L9.72919 6.58333H15.475L13.7834 17.8417ZM25.625 38.6667H21.25V41.5833H25.625C26.4417 41.5833 27.0834 42.225 27.0834 43.0417C27.0834 43.8583 26.4417 44.5 25.625 44.5H19.7917C18.975 44.5 18.3334 43.8583 18.3334 43.0417V37.2083C18.3334 36.3917 18.975 35.75 19.7917 35.75H24.1667V32.8333H19.7917C18.975 32.8333 18.3334 32.1917 18.3334 31.375C18.3334 30.5583 18.975 29.9167 19.7917 29.9167H25.625C26.4417 29.9167 27.0834 30.5583 27.0834 31.375V37.2083C27.0834 38.025 26.4417 38.6667 25.625 38.6667ZM27.0834 17.3458C27.0834 19.4458 25.4792 21.1667 23.3209 21.1667C21.1334 21.1667 19.5292 19.125 19.7625 16.85L21.3667 6.58333H27.0834V17.3458ZM40.2084 44.5C39.3917 44.5 38.75 43.8583 38.75 43.0417V38.6667H34.375C33.5584 38.6667 32.9167 38.025 32.9167 37.2083V31.375C32.9167 30.5583 33.5584 29.9167 34.375 29.9167C35.1917 29.9167 35.8334 30.5583 35.8334 31.375V35.75H38.75V31.375C38.75 30.5583 39.3917 29.9167 40.2084 29.9167C41.025 29.9167 41.6667 30.5583 41.6667 31.375V43.0417C41.6667 43.8583 41.025 44.5 40.2084 44.5ZM49.7459 21.1667C47.9667 21.1667 46.4209 19.7375 46.2167 17.8417L44.525 6.58333L50.1542 6.55417L53.2167 16.3833C53.6834 18.3375 52.4875 21.1667 49.7459 21.1667Z" fill="black"/>
</svg>
